<svg width="1080" height="1080" viewBox="0 0 1080 1080" fill="none" xmlns="http://www.w3.org/2000/svg">
<rect width="1080" height="1080" rx="540" fill="black"/>
<path d="M322.743 271.76H755.787V405.097H740.479C738.868 383.076 731.617 367.097 718.727 357.16C705.836 346.955 685.56 341.853 657.899 341.853H418.214C366.92 341.853 340.199 362.934 338.05 405.097H322.743V271.76ZM396.864 455.854H412.171C412.171 480.561 418.08 496.54 429.896 503.791C441.712 511.042 460.646 514.667 486.695 514.667H591.834C618.421 514.667 637.489 511.042 649.037 503.791C660.584 496.54 666.358 480.561 666.358 455.854H681.263V636.726H666.358C666.358 615.241 661.39 600.068 651.454 591.206C641.786 582.075 621.913 577.509 591.834 577.509H486.695C455.543 577.509 435.267 582.209 425.868 591.608C416.737 601.008 412.171 616.047 412.171 636.726H396.864V455.854ZM305.824 664.521H320.729V674.189C320.729 694.599 324.085 710.041 330.799 720.515C337.782 730.988 346.644 737.971 357.386 741.462C368.128 744.685 385.316 746.296 408.949 746.296H674.012C703.285 746.296 724.5 741.328 737.66 731.391C750.819 721.455 757.398 702.387 757.398 674.189V664.521H772.706V818H305.824V664.521Z" fill="white"/>
</svg>
